<svg xmlns="http://www.w3.org/2000/svg" xmlns:xlink="http://www.w3.org/1999/xlink" contentStyleType="text/css" data-diagram-type="DESCRIPTION" height="999px" preserveAspectRatio="none" style="width:1315px;height:999px;background:#FFFFFF;" version="1.1" viewBox="0 0 1315 999" width="1315px" zoomAndPan="magnify"><?plantuml 1.2026.6?><defs/><g><g class="title" data-source-line="1"><text fill="#000000" font-family="sans-serif" font-size="14" font-weight="700" lengthAdjust="spacing" textLength="205.543" x="551.2635" y="23.5352">KiwiDB &#8212; Use Case Diagram</text></g><!--cluster KiwiDB Storage Engine--><g class="cluster" data-qualified-name="KiwiDB Storage Engine" data-source-line="13" id="ent0006"><rect fill="none" height="812" rx="2.5" ry="2.5" style="stroke:#181818;stroke-width:1;" width="1159.45" x="141.62" y="44.4883"/><text fill="#000000" font-family="sans-serif" font-size="14" font-weight="700" lengthAdjust="spacing" textLength="163.707" x="639.4915" y="60.0234">KiwiDB Storage Engine</text></g><!--entity UC_Put--><g class="entity" data-qualified-name="KiwiDB Storage Engine.UC_Put" data-source-line="14" id="ent0007"><ellipse cx="268.3875" cy="439.4878" fill="#F1F1F1" rx="80.8475" ry="18.5695" style="stroke:#181818;stroke-width:0.5;"/><text fill="#000000" font-family="sans-serif" font-size="14" lengthAdjust="spacing" textLength="132.0771" x="202.349" y="444.2319">Put (write / update)</text></g><!--entity UC_Get--><g class="entity" data-qualified-name="KiwiDB Storage Engine.UC_Get" data-source-line="15" id="ent0008"><ellipse cx="268.3863" cy="371.4873" fill="#F1F1F1" rx="50.2063" ry="14.659" style="stroke:#181818;stroke-width:0.5;"/><text fill="#000000" font-family="sans-serif" font-size="14" lengthAdjust="spacing" textLength="66.7598" x="235.0064" y="376.2314">Get (read)</text></g><!--entity UC_Del--><g class="entity" data-qualified-name="KiwiDB Storage Engine.UC_Del" data-source-line="16" id="ent0009"><ellipse cx="268.389" cy="238.4921" fill="#F1F1F1" rx="79.919" ry="18.3838" style="stroke:#181818;stroke-width:0.5;"/><text fill="#000000" font-family="sans-serif" font-size="14" lengthAdjust="spacing" textLength="129.8828" x="203.4476" y="243.2362">Delete (tombstone)</text></g><!--entity UC_Flush--><g class="entity" data-qualified-name="KiwiDB Storage Engine.UC_Flush" data-source-line="17" id="ent0010"><ellipse cx="268.3884" cy="306.49" fill="#F1F1F1" rx="62.9584" ry="14.9917" style="stroke:#181818;stroke-width:0.5;"/><text fill="#000000" font-family="sans-serif" font-size="14" lengthAdjust="spacing" textLength="87.083" x="224.8469" y="311.2341">Manual flush</text></g><!--entity UC_Open--><g class="entity" data-qualified-name="KiwiDB Storage Engine.UC_Open" data-source-line="18" id="ent0011"><ellipse cx="268.3872" cy="164.4857" fill="#F1F1F1" rx="89.7372" ry="20.3474" style="stroke:#181818;stroke-width:0.5;"/><text fill="#000000" font-family="sans-serif" font-size="14" lengthAdjust="spacing" textLength="152.6328" x="192.0708" y="169.2299">Open / recover engine</text></g><!--entity UC_Close--><g class="entity" data-qualified-name="KiwiDB Storage Engine.UC_Close" data-source-line="19" id="ent0012"><ellipse cx="268.3926" cy="94.4868" fill="#F1F1F1" rx="63.0926" ry="15.0185" style="stroke:#181818;stroke-width:0.5;"/><text fill="#000000" font-family="sans-serif" font-size="14" lengthAdjust="spacing" textLength="87.4521" x="224.6665" y="99.2309">Close engine</text></g><!--entity UC_Wal--><g class="entity" data-qualified-name="KiwiDB Storage Engine.UC_Wal" data-source-line="21" id="ent0013"><ellipse cx="581.5744" cy="343.4892" fill="#F1F1F1" rx="69.5044" ry="16.3009" style="stroke:#181818;stroke-width:0.5;"/><text fill="#000000" font-family="sans-serif" font-size="14" lengthAdjust="spacing" textLength="104.3779" x="529.3854" y="348.2333">Append to WAL</text></g><!--entity UC_Freeze--><g class="entity" data-qualified-name="KiwiDB Storage Engine.UC_Freeze" data-source-line="22" id="ent0014"><ellipse cx="581.5731" cy="656.4929" fill="#F1F1F1" rx="74.4231" ry="17.2846" style="stroke:#181818;stroke-width:0.5;"/><text fill="#000000" font-family="sans-serif" font-size="14" lengthAdjust="spacing" textLength="116.6553" x="523.2455" y="661.237">Freeze memtable</text></g><!--entity UC_DoFlush--><g class="entity" data-qualified-name="KiwiDB Storage Engine.UC_DoFlush" data-source-line="23" id="ent0015"><ellipse cx="880.3929" cy="805.4869" fill="#F1F1F1" rx="103.3929" ry="23.0786" style="stroke:#181818;stroke-width:0.5;"/><text fill="#000000" font-family="sans-serif" font-size="14" lengthAdjust="spacing" textLength="183.0801" x="788.8528" y="810.231">Flush memtable to SSTable</text></g><!--entity UC_Compact--><g class="entity" data-qualified-name="KiwiDB Storage Engine.UC_Compact" data-source-line="24" id="ent0016"><ellipse cx="1213.4265" cy="814.4876" fill="#F1F1F1" rx="71.6465" ry="16.7293" style="stroke:#181818;stroke-width:0.5;"/><text fill="#000000" font-family="sans-serif" font-size="14" lengthAdjust="spacing" textLength="109.7852" x="1158.5339" y="819.2317">Run compaction</text></g><!--entity UC_Replay--><g class="entity" data-qualified-name="KiwiDB Storage Engine.UC_Replay" data-source-line="25" id="ent0017"><ellipse cx="581.5658" cy="164.4873" fill="#F1F1F1" rx="58.2158" ry="14.659" style="stroke:#181818;stroke-width:0.5;"/><text fill="#000000" font-family="sans-serif" font-size="14" lengthAdjust="spacing" textLength="78.0869" x="542.5223" y="169.2314">Replay WAL</text></g><!--entity UC_Inspect--><g class="entity" data-qualified-name="KiwiDB Storage Engine.UC_Inspect" data-source-line="27" id="ent0018"><ellipse cx="268.3941" cy="517.4911" fill="#F1F1F1" rx="110.7641" ry="24.5528" style="stroke:#181818;stroke-width:0.5;"/><text fill="#000000" font-family="sans-serif" font-size="14" lengthAdjust="spacing" textLength="199.1377" x="168.8253" y="522.2352">Inspect MemTable / SSTables</text></g><!--entity UC_Trace--><g class="entity" data-qualified-name="KiwiDB Storage Engine.UC_Trace" data-source-line="28" id="ent0019"><ellipse cx="268.3885" cy="595.488" fill="#F1F1F1" rx="79.3485" ry="18.2697" style="stroke:#181818;stroke-width:0.5;"/><text fill="#000000" font-family="sans-serif" font-size="14" lengthAdjust="spacing" textLength="128.5293" x="204.1238" y="600.2321">Trace a key lookup</text></g><!--entity UC_Logs--><g class="entity" data-qualified-name="KiwiDB Storage Engine.UC_Logs" data-source-line="29" id="ent0020"><ellipse cx="268.3867" cy="668.4896" fill="#F1F1F1" rx="84.6567" ry="19.3313" style="stroke:#181818;stroke-width:0.5;"/><text fill="#000000" font-family="sans-serif" font-size="14" lengthAdjust="spacing" textLength="140.9775" x="197.8979" y="673.2338">View live logs / stats</text></g><!--entity UC_Config--><g class="entity" data-qualified-name="KiwiDB Storage Engine.UC_Config" data-source-line="30" id="ent0021"><ellipse cx="268.386" cy="741.4875" fill="#F1F1F1" rx="80.046" ry="18.4092" style="stroke:#181818;stroke-width:0.5;"/><text fill="#000000" font-family="sans-serif" font-size="14" lengthAdjust="spacing" textLength="130.1836" x="203.2942" y="746.2316">Edit runtime config</text></g><!--entity UC_Load--><g class="entity" data-qualified-name="KiwiDB Storage Engine.UC_Load" data-source-line="31" id="ent0022"><ellipse cx="268.393" cy="817.4909" fill="#F1F1F1" rx="102.963" ry="22.9926" style="stroke:#181818;stroke-width:0.5;"/><text fill="#000000" font-family="sans-serif" font-size="14" lengthAdjust="spacing" textLength="182.1367" x="177.3246" y="822.235">Run load generator (demo)</text></g><!--entity App--><g class="entity" data-qualified-name="App" data-source-line="7" id="ent0001"><ellipse cx="50.3105" cy="241.9983" fill="#F1F1F1" rx="16" ry="16" style="stroke:#181818;stroke-width:0.5;"/><path d="M50.3105,261.9983 C54.3105,261.9983 57.3105,261.9983 61.3105,257.9983 C69.3105,257.9983 77.3105,265.9983 77.3105,273.9983 L77.3105,277.9983 C77.3105,281.9983 73.3105,285.9983 69.3105,285.9983 L31.3105,285.9983 C27.3105,285.9983 23.3105,281.9983 23.3105,277.9983 L23.3105,273.9983 C23.3105,265.9983 31.3105,257.9983 39.3105,257.9983 C43.3105,261.9983 46.3105,261.9983 50.3105,261.9983" fill="#F1F1F1" style="stroke:#181818;stroke-width:0.5;"/><text fill="#000000" font-family="sans-serif" font-size="14" lengthAdjust="spacing" textLength="88.6211" x="6" y="300.0334">Application /</text><text fill="#000000" font-family="sans-serif" font-size="14" lengthAdjust="spacing" textLength="68.3184" x="6" y="316.5217">Developer</text></g><!--entity Op--><g class="entity" data-qualified-name="Op" data-source-line="8" id="ent0002"><ellipse cx="50.3116" cy="564.9983" fill="#F1F1F1" rx="16" ry="16" style="stroke:#181818;stroke-width:0.5;"/><path d="M50.3116,584.9983 C54.3116,584.9983 57.3116,584.9983 61.3116,580.9983 C69.3116,580.9983 77.3116,588.9983 77.3116,596.9983 L77.3116,600.9983 C77.3116,604.9983 73.3116,608.9983 69.3116,608.9983 L31.3116,608.9983 C27.3116,608.9983 23.3116,604.9983 23.3116,600.9983 L23.3116,596.9983 C23.3116,588.9983 31.3116,580.9983 39.3116,580.9983 C43.3116,584.9983 46.3116,584.9983 50.3116,584.9983" fill="#F1F1F1" style="stroke:#181818;stroke-width:0.5;"/><text fill="#000000" font-family="sans-serif" font-size="14" lengthAdjust="spacing" textLength="72.2832" x="14.17" y="623.0334">Operator /</text><text fill="#000000" font-family="sans-serif" font-size="14" lengthAdjust="spacing" textLength="63.2393" x="14.17" y="639.5217">Examiner</text></g><!--entity Flush--><g class="entity" data-qualified-name="Flush" data-source-line="9" id="ent0003"><ellipse cx="581.5773" cy="905.2466" fill="#F1F1F1" rx="16" ry="16" style="stroke:#181818;stroke-width:0.5;"/><path d="M581.5773,925.2466 C585.5773,925.2466 588.5773,925.2466 592.5773,921.2466 C600.5773,921.2466 608.5773,929.2466 608.5773,937.2466 L608.5773,941.2466 C608.5773,945.2466 604.5773,949.2466 600.5773,949.2466 L562.5773,949.2466 C558.5773,949.2466 554.5773,945.2466 554.5773,941.2466 L554.5773,937.2466 C554.5773,929.2466 562.5773,921.2466 570.5773,921.2466 C574.5773,925.2466 577.5773,925.2466 581.5773,925.2466" fill="#F1F1F1" style="stroke:#181818;stroke-width:0.5;"/><text fill="#000000" font-family="sans-serif" font-size="14" lengthAdjust="spacing" textLength="93.4746" x="534.84" y="963.2817">Flush Pipeline</text><text fill="#000000" font-family="sans-serif" font-size="14" lengthAdjust="spacing" textLength="90.248" x="534.84" y="979.77">(background)</text><text fill="#000000" font-family="sans-serif" font-size="14" font-style="italic" lengthAdjust="spacing" textLength="62.3643" x="550.3952" y="885.7934">&#171;system&#187;</text></g><!--entity Comp--><g class="entity" data-qualified-name="Comp" data-source-line="10" id="ent0004"><ellipse cx="880.3895" cy="905.2466" fill="#F1F1F1" rx="16" ry="16" style="stroke:#181818;stroke-width:0.5;"/><path d="M880.3895,925.2466 C884.3895,925.2466 887.3895,925.2466 891.3895,921.2466 C899.3895,921.2466 907.3895,929.2466 907.3895,937.2466 L907.3895,941.2466 C907.3895,945.2466 903.3895,949.2466 899.3895,949.2466 L861.3895,949.2466 C857.3895,949.2466 853.3895,945.2466 853.3895,941.2466 L853.3895,937.2466 C853.3895,929.2466 861.3895,921.2466 869.3895,921.2466 C873.3895,925.2466 876.3895,925.2466 880.3895,925.2466" fill="#F1F1F1" style="stroke:#181818;stroke-width:0.5;"/><text fill="#000000" font-family="sans-serif" font-size="14" lengthAdjust="spacing" textLength="144.5391" x="808.12" y="963.2817">Compaction Manager</text><text fill="#000000" font-family="sans-serif" font-size="14" lengthAdjust="spacing" textLength="90.248" x="808.12" y="979.77">(background)</text><text fill="#000000" font-family="sans-serif" font-size="14" font-style="italic" lengthAdjust="spacing" textLength="62.3643" x="849.2074" y="885.7934">&#171;system&#187;</text></g><!--entity Timer--><g class="entity" data-qualified-name="Timer" data-source-line="11" id="ent0005"><ellipse cx="268.3806" cy="908.2466" fill="#F1F1F1" rx="16" ry="16" style="stroke:#181818;stroke-width:0.5;"/><path d="M268.3806,928.2466 C272.3806,928.2466 275.3806,928.2466 279.3806,924.2466 C287.3806,924.2466 295.3806,932.2466 295.3806,940.2466 L295.3806,944.2466 C295.3806,948.2466 291.3806,952.2466 287.3806,952.2466 L249.3806,952.2466 C245.3806,952.2466 241.3806,948.2466 241.3806,944.2466 L241.3806,940.2466 C241.3806,932.2466 249.3806,924.2466 257.3806,924.2466 C261.3806,928.2466 264.3806,928.2466 268.3806,928.2466" fill="#F1F1F1" style="stroke:#181818;stroke-width:0.5;"/><text fill="#000000" font-family="sans-serif" font-size="14" lengthAdjust="spacing" textLength="49.458" x="208.99" y="966.2817">Clock /</text><text fill="#000000" font-family="sans-serif" font-size="14" lengthAdjust="spacing" textLength="118.7813" x="208.99" y="982.77">Threshold trigger</text><text fill="#000000" font-family="sans-serif" font-size="14" font-style="italic" lengthAdjust="spacing" textLength="62.3643" x="237.1985" y="888.7934">&#171;system&#187;</text></g><!--link App to UC_Put--><g class="link" data-entity-1="ent0001" data-entity-2="ent0007" data-link-type="dependency" data-source-line="34" id="lnk23"><path d="M70.31,319.7683 C83.95,347.9883 105,382.3383 133.62,403.4883 C151.9,416.9883 170.051,424.2493 191.811,429.5293" fill="none" id="App-to-UC_Put" style="stroke:#181818;stroke-width:1;"/><polygon fill="#181818" points="196.67,430.7083,188.867,424.6988,191.811,429.5293,186.9806,432.4732,196.67,430.7083" style="stroke:#181818;stroke-width:1;stroke-linejoin:miter;stroke-miterlimit:10;"/></g><!--link App to UC_Get--><g class="link" data-entity-1="ent0001" data-entity-2="ent0008" data-link-type="dependency" data-source-line="35" id="lnk24"><path d="M95.03,313.2883 C106.87,322.6683 120.16,331.8283 133.62,338.4883 C161.5,352.2583 190.6391,359.6723 217.4091,364.4923" fill="none" id="App-to-UC_Get" style="stroke:#181818;stroke-width:1;"/><polygon fill="#181818" points="222.33,365.3783,214.1812,359.8468,217.4091,364.4923,212.7636,367.7202,222.33,365.3783" style="stroke:#181818;stroke-width:1;stroke-linejoin:miter;stroke-miterlimit:10;"/></g><!--link App to UC_Del--><g class="link" data-entity-1="ent0001" data-entity-2="ent0009" data-link-type="dependency" data-source-line="36" id="lnk25"><path d="M95.04,265.6083 C125.62,260.7883 162.0708,255.0557 196.6308,249.6157" fill="none" id="App-to-UC_Del" style="stroke:#181818;stroke-width:1;"/><polygon fill="#181818" points="201.57,248.8383,192.0575,246.2864,196.6308,249.6157,193.3014,254.1891,201.57,248.8383" style="stroke:#181818;stroke-width:1;stroke-linejoin:miter;stroke-miterlimit:10;"/></g><!--link App to UC_Flush--><g class="link" data-entity-1="ent0001" data-entity-2="ent0010" data-link-type="dependency" data-source-line="37" id="lnk26"><path d="M95.04,279.3683 C129.69,284.8183 173.2808,291.681 210.0108,297.461" fill="none" id="App-to-UC_Flush" style="stroke:#181818;stroke-width:1;"/><polygon fill="#181818" points="214.95,298.2383,206.6812,292.8878,210.0108,297.461,205.4376,300.7906,214.95,298.2383" style="stroke:#181818;stroke-width:1;stroke-linejoin:miter;stroke-miterlimit:10;"/></g><!--link App to UC_Open--><g class="link" data-entity-1="ent0001" data-entity-2="ent0011" data-link-type="dependency" data-source-line="38" id="lnk27"><path d="M94.89,229.4783 C106.73,219.5183 120.05,209.7383 133.62,202.4883 C153.85,191.6783 172.6497,184.9498 194.3797,179.1398" fill="none" id="App-to-UC_Open" style="stroke:#181818;stroke-width:1;"/><polygon fill="#181818" points="199.21,177.8483,189.4822,176.3087,194.3797,179.1398,191.5486,184.0372,199.21,177.8483" style="stroke:#181818;stroke-width:1;stroke-linejoin:miter;stroke-miterlimit:10;"/></g><!--link App to UC_Close--><g class="link" data-entity-1="ent0001" data-entity-2="ent0012" data-link-type="dependency" data-source-line="39" id="lnk28"><path d="M66.52,225.1783 C79.37,192.6783 100.98,151.0983 133.62,126.4883 C154.59,110.6683 177.3084,103.3625 202.0184,99.2325" fill="none" id="App-to-UC_Close" style="stroke:#181818;stroke-width:1;"/><polygon fill="#181818" points="206.95,98.4083,197.4137,95.9467,202.0184,99.2325,198.7325,103.8372,206.95,98.4083" style="stroke:#181818;stroke-width:1;stroke-linejoin:miter;stroke-miterlimit:10;"/></g><!--link Op to UC_Inspect--><g class="link" data-entity-1="ent0002" data-entity-2="ent0018" data-link-type="dependency" data-source-line="41" id="lnk29"><path d="M86.62,579.0383 C101.05,572.5883 117.99,565.3383 133.62,559.4883 C154.93,551.5083 173.7441,545.2284 195.1041,538.6084" fill="none" id="Op-to-UC_Inspect" style="stroke:#181818;stroke-width:1;"/><polygon fill="#181818" points="199.88,537.1283,190.0993,535.9719,195.1041,538.6084,192.4675,543.6133,199.88,537.1283" style="stroke:#181818;stroke-width:1;stroke-linejoin:miter;stroke-miterlimit:10;"/></g><!--link Op to UC_Trace--><g class="link" data-entity-1="ent0002" data-entity-2="ent0019" data-link-type="dependency" data-source-line="42" id="lnk30"><path d="M86.51,595.4883 C114.13,595.4883 148.65,595.4883 183.7,595.4883" fill="none" id="Op-to-UC_Trace" style="stroke:#181818;stroke-width:1;"/><polygon fill="#181818" points="188.7,595.4883,179.7,591.4883,183.7,595.4883,179.7,599.4883,188.7,595.4883" style="stroke:#181818;stroke-width:1;stroke-linejoin:miter;stroke-miterlimit:10;"/></g><!--link Op to UC_Logs--><g class="link" data-entity-1="ent0002" data-entity-2="ent0020" data-link-type="dependency" data-source-line="43" id="lnk31"><path d="M86.92,612.3883 C101.25,618.8283 118.04,625.9583 133.62,631.4883 C158.03,640.1483 180.6966,646.7785 204.3766,653.0485" fill="none" id="Op-to-UC_Logs" style="stroke:#181818;stroke-width:1;"/><polygon fill="#181818" points="209.21,654.3283,201.5337,648.1579,204.3766,653.0485,199.486,655.8914,209.21,654.3283" style="stroke:#181818;stroke-width:1;stroke-linejoin:miter;stroke-miterlimit:10;"/></g><!--link Op to UC_Config--><g class="link" data-entity-1="ent0002" data-entity-2="ent0021" data-link-type="dependency" data-source-line="44" id="lnk32"><path d="M76.79,642.8783 C90.85,664.8783 110.22,689.6283 133.62,705.4883 C152.83,718.5083 171.7082,725.6607 193.8182,730.9707" fill="none" id="Op-to-UC_Config" style="stroke:#181818;stroke-width:1;"/><polygon fill="#181818" points="198.68,732.1383,190.8629,726.1472,193.8182,730.9707,188.9947,733.926,198.68,732.1383" style="stroke:#181818;stroke-width:1;stroke-linejoin:miter;stroke-miterlimit:10;"/></g><!--link Op to UC_Load--><g class="link" data-entity-1="ent0002" data-entity-2="ent0022" data-link-type="dependency" data-source-line="45" id="lnk33"><path d="M61.05,642.8083 C71.93,683.9983 93.54,742.4483 133.62,777.4883 C147.67,789.7683 160.6216,796.7123 178.5116,802.6123" fill="none" id="Op-to-UC_Load" style="stroke:#181818;stroke-width:1;"/><polygon fill="#181818" points="183.26,804.1783,175.9656,797.5607,178.5116,802.6123,173.46,805.1582,183.26,804.1783" style="stroke:#181818;stroke-width:1;stroke-linejoin:miter;stroke-miterlimit:10;"/></g><!--link Op to UC_Get--><g class="link" data-entity-1="ent0002" data-entity-2="ent0008" data-link-type="dependency" data-source-line="46" id="lnk34"><path d="M59.18,548.0183 C68.99,504.0783 90.08,440.1783 133.62,403.4883 C156.99,383.7883 185.4608,376.3428 213.0608,373.2628" fill="none" id="Op-to-UC_Get" style="stroke:#181818;stroke-width:1;"/><polygon fill="#181818" points="218.03,372.7083,208.6419,369.7311,213.0608,373.2628,209.5291,377.6818,218.03,372.7083" style="stroke:#181818;stroke-width:1;stroke-linejoin:miter;stroke-miterlimit:10;"/></g><!--link Op to UC_Put--><g class="link" data-entity-1="ent0002" data-entity-2="ent0007" data-link-type="dependency" data-source-line="47" id="lnk35"><path d="M73.5,548.0183 C87.46,523.0083 107.75,493.8083 133.62,475.4883 C152.27,462.2783 170.6305,455.0953 192.4705,449.8053" fill="none" id="Op-to-UC_Put" style="stroke:#181818;stroke-width:1;"/><polygon fill="#181818" points="197.33,448.6283,187.6413,446.8594,192.4705,449.8053,189.5246,454.6345,197.33,448.6283" style="stroke:#181818;stroke-width:1;stroke-linejoin:miter;stroke-miterlimit:10;"/></g><!--link UC_Put to UC_Wal--><g class="link" data-entity-1="ent0007" data-entity-2="ent0013" data-link-type="dependency" data-source-line="50" id="lnk36"><path d="M318.01,424.4883 C378.52,405.8183 476.0922,375.7122 533.5022,358.0022" fill="none" id="UC_Put-to-UC_Wal" style="stroke:#181818;stroke-width:1;stroke-dasharray:7,7;"/><polygon fill="#181818" points="538.28,356.5283,528.5008,355.359,533.5022,358.0022,530.859,363.0035,538.28,356.5283" style="stroke:#181818;stroke-width:1;stroke-linejoin:miter;stroke-miterlimit:10;"/><text fill="#000000" font-family="sans-serif" font-size="13" lengthAdjust="spacing" textLength="59.3569" x="413.65" y="373.8466">&#171;include&#187;</text></g><!--link UC_Del to UC_Wal--><g class="link" data-entity-1="ent0009" data-entity-2="ent0013" data-link-type="dependency" data-source-line="51" id="lnk37"><path d="M315.9,253.5883 C335.45,259.9783 358.42,267.5383 379.15,274.4883 C435.58,293.3983 495.9747,314.1838 536.5347,328.2138" fill="none" id="UC_Del-to-UC_Wal" style="stroke:#181818;stroke-width:1;stroke-dasharray:7,7;"/><polygon fill="#181818" points="541.26,329.8483,534.0621,323.1259,536.5347,328.2138,531.4469,330.6864,541.26,329.8483" style="stroke:#181818;stroke-width:1;stroke-linejoin:miter;stroke-miterlimit:10;"/><text fill="#000000" font-family="sans-serif" font-size="13" lengthAdjust="spacing" textLength="59.3569" x="413.65" y="282.1866">&#171;include&#187;</text></g><!--link UC_Put to UC_Freeze--><g class="link" data-entity-1="ent0007" data-entity-2="ent0014" data-link-type="dependency" data-source-line="52" id="lnk38"><path d="M335.38,450.2083 C351.39,455.5383 367.28,463.5283 379.15,475.4883 C410.03,506.6183 380.73,536.0883 409.15,569.4883 C441.16,607.1083 488.7092,628.7194 527.1392,641.5994" fill="none" id="UC_Put-to-UC_Freeze" style="stroke:#181818;stroke-width:1;stroke-dasharray:7,7;"/><polygon fill="#181818" points="531.88,643.1883,524.6177,636.5356,527.1392,641.5994,522.0754,644.1209,531.88,643.1883" style="stroke:#181818;stroke-width:1;stroke-linejoin:miter;stroke-miterlimit:10;"/><text fill="#000000" font-family="sans-serif" font-size="13" lengthAdjust="spacing" textLength="57.1924" x="414.7171" y="551.0566">&#171;extend&#187;</text><text fill="#000000" font-family="sans-serif" font-size="13" lengthAdjust="spacing" textLength="66.3267" x="410.15" y="566.3672">(when full)</text></g><!--link UC_Flush to UC_Freeze--><g class="link" data-entity-1="ent0010" data-entity-2="ent0014" data-link-type="dependency" data-source-line="53" id="lnk39"><path d="M325.52,313.0983 C344.49,317.8083 364.54,325.8283 379.15,339.4883 C406.88,365.4283 391.19,386.0283 409.15,419.4883 C456.69,508.0783 529.9924,597.6066 562.2324,635.3466" fill="none" id="UC_Flush-to-UC_Freeze" style="stroke:#181818;stroke-width:1;stroke-dasharray:7,7;"/><polygon fill="#181818" points="565.48,639.1483,562.6756,629.7071,562.2324,635.3466,556.5929,634.9034,565.48,639.1483" style="stroke:#181818;stroke-width:1;stroke-linejoin:miter;stroke-miterlimit:10;"/><text fill="#000000" font-family="sans-serif" font-size="13" lengthAdjust="spacing" textLength="59.3569" x="413.65" y="416.0566">&#171;include&#187;</text></g><!--link Timer to UC_Freeze--><g class="link" data-entity-1="ent0005" data-entity-2="ent0014" data-link-type="dependency" data-source-line="56" id="lnk40"><path d="M328.11,893.8583 C345.06,882.5083 363.25,869.5383 379.15,856.4883 C454.18,794.8783 529.6685,713.3678 562.0185,677.3578" fill="none" id="Timer-to-UC_Freeze" style="stroke:#181818;stroke-width:1;"/><polygon fill="#181818" points="565.36,673.6383,556.3698,677.6602,562.0185,677.3578,562.321,683.0065,565.36,673.6383" style="stroke:#181818;stroke-width:1;stroke-linejoin:miter;stroke-miterlimit:10;"/></g><!--link Flush to UC_DoFlush--><g class="link" data-entity-1="ent0003" data-entity-2="ent0015" data-link-type="dependency" data-source-line="57" id="lnk41"><path d="M628.62,908.5583 C683.09,886.1683 768.7953,850.9388 824.8853,827.8888" fill="none" id="Flush-to-UC_DoFlush" style="stroke:#181818;stroke-width:1;"/><polygon fill="#181818" points="829.51,825.9883,819.6651,825.7094,824.8853,827.8888,822.7059,833.109,829.51,825.9883" style="stroke:#181818;stroke-width:1;stroke-linejoin:miter;stroke-miterlimit:10;"/></g><!--link UC_Freeze to UC_DoFlush--><g class="link" data-entity-1="ent0014" data-entity-2="ent0015" data-link-type="dependency" data-source-line="58" id="lnk42"><path d="M614.34,672.4283 C668.03,699.3783 772.2611,751.7157 832.4411,781.9157" fill="none" id="UC_Freeze-to-UC_DoFlush" style="stroke:#181818;stroke-width:1;stroke-dasharray:7,7;"/><polygon fill="#181818" points="836.91,784.1583,830.6601,776.5465,832.4411,781.9157,827.072,783.6967,836.91,784.1583" style="stroke:#181818;stroke-width:1;stroke-linejoin:miter;stroke-miterlimit:10;"/><text fill="#000000" font-family="sans-serif" font-size="13" lengthAdjust="spacing" textLength="59.3569" x="687" y="705.5066">&#171;include&#187;</text></g><!--link UC_DoFlush to UC_Compact--><g class="link" data-entity-1="ent0015" data-entity-2="ent0016" data-link-type="dependency" data-source-line="59" id="lnk43"><path d="M983.41,808.2583 C1034.8,809.6583 1090.8118,811.1828 1136.9418,812.4328" fill="none" id="UC_DoFlush-to-UC_Compact" style="stroke:#181818;stroke-width:1;stroke-dasharray:7,7;"/><polygon fill="#181818" points="1141.94,812.5683,1133.0517,808.326,1136.9418,812.4328,1132.835,816.323,1141.94,812.5683" style="stroke:#181818;stroke-width:1;stroke-linejoin:miter;stroke-miterlimit:10;"/><text fill="#000000" font-family="sans-serif" font-size="13" lengthAdjust="spacing" textLength="57.1924" x="1034.645" y="790.7466">&#171;extend&#187;</text><text fill="#000000" font-family="sans-serif" font-size="13" lengthAdjust="spacing" textLength="96.9224" x="1014.78" y="806.0572">(threshold met)</text></g><!--link Comp to UC_Compact--><g class="link" data-entity-1="ent0004" data-entity-2="ent0016" data-link-type="dependency" data-source-line="60" id="lnk44"><path d="M952.81,903.1083 C1019.72,880.2683 1112.6082,848.5638 1167.0882,829.9638" fill="none" id="Comp-to-UC_Compact" style="stroke:#181818;stroke-width:1;"/><polygon fill="#181818" points="1171.82,828.3483,1162.0103,827.4707,1167.0882,829.9638,1164.5951,835.0416,1171.82,828.3483" style="stroke:#181818;stroke-width:1;stroke-linejoin:miter;stroke-miterlimit:10;"/></g><!--link UC_Open to UC_Replay--><g class="link" data-entity-1="ent0011" data-entity-2="ent0017" data-link-type="dependency" data-source-line="63" id="lnk45"><path d="M358.56,164.4883 C411.54,164.4883 472.17,164.4883 518.29,164.4883" fill="none" id="UC_Open-to-UC_Replay" style="stroke:#181818;stroke-width:1;stroke-dasharray:7,7;"/><polygon fill="#181818" points="523.29,164.4883,514.29,160.4883,518.29,164.4883,514.29,168.4883,523.29,164.4883" style="stroke:#181818;stroke-width:1;stroke-linejoin:miter;stroke-miterlimit:10;"/><text fill="#000000" font-family="sans-serif" font-size="13" lengthAdjust="spacing" textLength="59.3569" x="413.65" y="161.0566">&#171;include&#187;</text></g><?plantuml-src VLJDRjim3BxhAOXSbW1hUn-A05tJ3iDQf5ZIzL9WK6tQ5Y9BXYGtpOO1UuWzuPwab2NRSXVi4eVaH-hZhnDE8dmHUx7w27z__u5xYt39wMSbU6bupIGM3fm68yhAGIuCPavenUnEg8OJ0XgUxNY96tUWKDxCLIan0V3CQHFCV8zMrwdHLZpNUw5AABYqo5Y7Xjb5qqYHSVyMd3sg5JwZr0sQ6N0BPEnnQz9n_uz0Lo-y5YfYrWFaMhQsWZlHe2Jheve_4UFIw5RbYmuQ0EVdzc0TrijbxtYfQqgket3B5ULeZZXxq35VgRET9xMj3DfAonmSrR2CxBQYHfEwiQ5oC8lzs50WUXIkL4cyP_2J0RGMCz-UsLthOButmY6SGTlat67WSt_vdMmfz1CIr23F1m1fKi0A9LASkTFratLQZP78aWAf2YsNKFXwzP2kU2c8Ea8jyvEWdob7ZEm3sXjJC9M9FbDCfsCfYlgDAlTZ-71nqyCU-8JRjK7yWL1ZxVYJ7885zGJOTRl7-Q2RpJPrMUb_SlhQAiY6QHY81iq4Y8taXvHcq4pI-QniGzs6MwoxXwbQaOBjlI8azTeQdj46mGuF8BNUjKqFxYmfz9l0FKZnZ0GiBOMtZhiXzWtfKlHLBXoOLZcQISfI5Q8SC_JIsqf8pNCeKSNDc-TOwyKOdUVi5sFKCpWvMVRpc8X--XBHprWYXjedYcva4ZcEntfGzBKQDQ4WeznbF8engzHEdDSJWki9U_OEmgurt5N0vPuVRAXj8Onrxy5LDFGrTJukEVMf29CN8i3fwJ8EBNoWlHSgassEjFYX0l-r9_vnoZq4NnmjnN99DsdlNozQAHUih-0HXp4cfJEUiN2VBGidgUz281z2zOsAUp56ZMz4mv74z8HBt9UtxDrm8Mjq2zOTrA5JOSE8SBmd1nP7eWyQDsxwzYi0?></g></svg>