<svg xmlns="http://www.w3.org/2000/svg" xmlns:xlink="http://www.w3.org/1999/xlink" contentStyleType="text/css" data-diagram-type="STATE" height="1317px" preserveAspectRatio="none" style="width:613px;height:1317px;background:#FFFFFF;" version="1.1" viewBox="0 0 613 1317" width="613px" zoomAndPan="magnify"><?plantuml 1.2026.6?><defs/><g><g class="title" data-source-line="1"><text fill="#000000" font-family="sans-serif" font-size="14" font-weight="700" lengthAdjust="spacing" textLength="329.4648" x="138.4195" y="23.5352">KiwiDB &#8212; State Machine: SSTable file lifecycle</text></g><g class="entity" data-qualified-name="Writing" data-source-line="6" id="ent0001"><path d="M19.5,140.4883 L480.2693,140.4883 A12.5,12.5 0 0 1 492.7693,152.9883 L492.7693,166.9766 L7,166.9766 L7,152.9883 A12.5,12.5 0 0 1 19.5,140.4883" fill="#F1F1F1"/><rect fill="none" height="157.4883" rx="12.5" ry="12.5" style="stroke:#181818;stroke-width:0.5;" width="485.7693" x="7" y="140.4883"/><line style="stroke:#181818;stroke-width:0.5;" x1="7" x2="492.7693" y1="166.9766" y2="166.9766"/><text fill="#000000" font-family="sans-serif" font-size="14" lengthAdjust="spacing" textLength="48.4531" x="225.6581" y="159.0234">Writing</text><g class="start_entity" data-qualified-name="Writing..start.Writing" data-source-line="7" id="ent0006"><ellipse cx="60.01" cy="187.9766" fill="#222222" rx="10" ry="10" style="stroke:#222222;stroke-width:1;"/></g><g class="entity" data-qualified-name="Writing.Buffering" data-source-line="7" id="ent0007"><rect fill="#F1F1F1" height="50" rx="12.5" ry="12.5" style="stroke:#181818;stroke-width:0.5;" width="82.0293" x="19" y="234.9766"/><line style="stroke:#181818;stroke-width:0.5;" x1="19" x2="101.0293" y1="261.4648" y2="261.4648"/><text fill="#000000" font-family="sans-serif" font-size="14" lengthAdjust="spacing" textLength="62.0293" x="29" y="253.5117">Buffering</text></g><!--link *start*Writing to Buffering--><g class="link" data-entity-1="ent0006" data-entity-2="ent0007" data-link-type="dependency" data-source-line="7" id="lnk8"><path d="M60.01,198.4166 C60.01,207.6766 60.01,217.1666 60.01,229.6566" fill="none" id="*start*Writing-to-Buffering" style="stroke:#181818;stroke-width:1;"/><polygon fill="#181818" points="60.01,234.6566,64.01,225.6566,60.01,229.6566,56.01,225.6566,60.01,234.6566" style="stroke:#181818;stroke-width:1;stroke-linejoin:miter;stroke-miterlimit:10;"/></g><!--link Buffering to Buffering--><g class="link" data-entity-1="ent0007" data-entity-2="ent0007" data-link-type="dependency" data-source-line="8" id="lnk9"><path d="M101.38,255.9666 C111.5,256.2566 119.03,257.5966 119.03,259.9766 C119.03,262.3566 116.4979,263.5533 106.3779,263.8433" fill="none" id="Buffering-to-Buffering" style="stroke:#181818;stroke-width:1;"/><polygon fill="#181818" points="101.38,263.9866,110.4909,267.7271,106.3779,263.8433,110.2617,259.7304,101.38,263.9866" style="stroke:#181818;stroke-width:1;stroke-linejoin:miter;stroke-miterlimit:10;"/><text fill="#000000" font-family="sans-serif" font-size="13" lengthAdjust="spacing" textLength="142.397" x="125.03" y="257.5449">put(key, seq, ts, value)</text><text fill="#000000" font-family="sans-serif" font-size="13" lengthAdjust="spacing" textLength="104.7173" x="143.8698" y="272.8555">(ascending keys)</text></g><!--link Buffering to Buffering--><g class="link" data-entity-1="ent0007" data-entity-2="ent0007" data-link-type="dependency" data-source-line="9" id="lnk10"><path d="M101.18,254.0566 C164.33,249.7166 273.03,251.6966 273.03,259.9766 C273.03,268.2566 169.3182,270.5794 106.1682,266.2394" fill="none" id="Buffering-to-Buffering-1" style="stroke:#181818;stroke-width:1;"/><polygon fill="#181818" points="101.18,265.8966,109.8846,270.5042,106.1682,266.2394,110.4331,262.523,101.18,265.8966" style="stroke:#181818;stroke-width:1;stroke-linejoin:miter;stroke-miterlimit:10;"/><text fill="#000000" font-family="sans-serif" font-size="13" lengthAdjust="spacing" textLength="158.4502" x="291.6745" y="257.5449">block full -&gt; flush block,</text><text fill="#000000" font-family="sans-serif" font-size="13" lengthAdjust="spacing" textLength="183.7393" x="279.03" y="272.8555">add to sparse index + bloom</text></g></g><g class="entity" data-qualified-name="Live" data-source-line="22" id="ent0002"><path d="M56.99,568.2183 L442.7783,568.2183 A12.5,12.5 0 0 1 455.2783,580.7183 L455.2783,594.7066 L44.49,594.7066 L44.49,580.7183 A12.5,12.5 0 0 1 56.99,568.2183" fill="#F1F1F1"/><rect fill="none" height="260.4883" rx="12.5" ry="12.5" style="stroke:#181818;stroke-width:0.5;" width="410.7883" x="44.49" y="568.2183"/><line style="stroke:#181818;stroke-width:0.5;" x1="44.49" x2="455.2783" y1="594.7066" y2="594.7066"/><text fill="#000000" font-family="sans-serif" font-size="14" lengthAdjust="spacing" textLength="26.5576" x="236.6053" y="586.7534">Live</text><g class="start_entity" data-qualified-name="Live..start.Live" data-source-line="23" id="ent0014"><ellipse cx="171.09" cy="615.7066" fill="#222222" rx="10" ry="10" style="stroke:#222222;stroke-width:1;"/></g><g class="entity" data-qualified-name="Live.Idle" data-source-line="23" id="ent0015"><rect fill="#F1F1F1" height="50" rx="12.5" ry="12.5" style="stroke:#181818;stroke-width:0.5;" width="50" x="146.09" y="662.7066"/><line style="stroke:#181818;stroke-width:0.5;" x1="146.09" x2="196.09" y1="689.1948" y2="689.1948"/><text fill="#000000" font-family="sans-serif" font-size="14" lengthAdjust="spacing" textLength="24.6914" x="158.7443" y="681.2417">Idle</text></g><g class="entity" data-qualified-name="Live.Reading" data-source-line="24" id="ent0017"><rect fill="#F1F1F1" height="50" rx="12.5" ry="12.5" style="stroke:#181818;stroke-width:0.5;" width="74.6602" x="133.76" y="765.7066"/><line style="stroke:#181818;stroke-width:0.5;" x1="133.76" x2="208.4202" y1="792.1948" y2="792.1948"/><text fill="#000000" font-family="sans-serif" font-size="14" lengthAdjust="spacing" textLength="54.6602" x="143.76" y="784.2417">Reading</text></g><!--link *start*Live to Idle--><g class="link" data-entity-1="ent0014" data-entity-2="ent0015" data-link-type="dependency" data-source-line="23" id="lnk16"><path d="M171.09,626.1466 C171.09,635.4066 171.09,644.8966 171.09,657.3866" fill="none" id="*start*Live-to-Idle" style="stroke:#181818;stroke-width:1;"/><polygon fill="#181818" points="171.09,662.3866,175.09,653.3866,171.09,657.3866,167.09,653.3866,171.09,662.3866" style="stroke:#181818;stroke-width:1;stroke-linejoin:miter;stroke-miterlimit:10;"/></g><!--link Idle to Reading--><g class="link" data-entity-1="ent0015" data-entity-2="ent0017" data-link-type="dependency" data-source-line="24" id="lnk18"><path d="M145.64,691.8066 C122.33,696.1466 89.09,706.4466 73.09,730.7066 C55.49,757.3966 93.9357,772.6584 128.4957,781.1884" fill="none" id="Idle-to-Reading" style="stroke:#181818;stroke-width:1;"/><polygon fill="#181818" points="133.35,782.3866,125.5707,776.3465,128.4957,781.1884,123.6537,784.1134,133.35,782.3866" style="stroke:#181818;stroke-width:1;stroke-linejoin:miter;stroke-miterlimit:10;"/><text fill="#000000" font-family="sans-serif" font-size="13" lengthAdjust="spacing" textLength="173.1387" x="74.09" y="744.2749">open_reader() (refcount++)</text></g><!--link Reading to Idle--><g class="link" data-entity-1="ent0017" data-entity-2="ent0015" data-link-type="dependency" data-source-line="25" id="lnk19"><path d="M208.74,777.9966 C234.02,767.9566 260.6,751.7766 248.09,730.7066 C236.98,711.9866 219.0024,702.6509 201.1024,696.6709" fill="none" id="Reading-to-Idle" style="stroke:#181818;stroke-width:1;"/><polygon fill="#181818" points="196.36,695.0866,203.6288,701.7322,201.1024,696.6709,206.1637,694.1444,196.36,695.0866" style="stroke:#181818;stroke-width:1;stroke-linejoin:miter;stroke-miterlimit:10;"/><text fill="#000000" font-family="sans-serif" font-size="13" lengthAdjust="spacing" textLength="177.9883" x="252.29" y="744.2749">reader released (refcount--)</text></g></g><g class="entity" data-qualified-name="MarkedForDeletion" data-source-line="30" id="ent0003"><path d="M115.09,920.7083 L384.6858,920.7083 A12.5,12.5 0 0 1 397.1858,933.2083 L397.1858,947.1966 L102.59,947.1966 L102.59,933.2083 A12.5,12.5 0 0 1 115.09,920.7083" fill="#F1F1F1"/><rect fill="none" height="157.4883" rx="12.5" ry="12.5" style="stroke:#181818;stroke-width:0.5;" width="294.5958" x="102.59" y="920.7083"/><line style="stroke:#181818;stroke-width:0.5;" x1="102.59" x2="397.1858" y1="947.1966" y2="947.1966"/><text fill="#000000" font-family="sans-serif" font-size="14" lengthAdjust="spacing" textLength="128.8506" x="185.4626" y="939.2434">MarkedForDeletion</text><g class="start_entity" data-qualified-name="MarkedForDeletion..start.MarkedForDeletion" data-source-line="31" id="ent0021"><ellipse cx="153.66" cy="968.1966" fill="#222222" rx="10" ry="10" style="stroke:#222222;stroke-width:1;"/></g><g class="entity" data-qualified-name="MarkedForDeletion.Draining" data-source-line="31" id="ent0022"><rect fill="#F1F1F1" height="50" rx="12.5" ry="12.5" style="stroke:#181818;stroke-width:0.5;" width="78.1465" x="114.59" y="1015.1966"/><line style="stroke:#181818;stroke-width:0.5;" x1="114.59" x2="192.7365" y1="1041.6848" y2="1041.6848"/><text fill="#000000" font-family="sans-serif" font-size="14" lengthAdjust="spacing" textLength="58.1465" x="124.59" y="1033.7317">Draining</text></g><!--link *start*MarkedForDeletion to Draining--><g class="link" data-entity-1="ent0021" data-entity-2="ent0022" data-link-type="dependency" data-source-line="31" id="lnk23"><path d="M153.66,978.6366 C153.66,987.8966 153.66,997.3866 153.66,1009.8766" fill="none" id="*start*MarkedForDeletion-to-Draining" style="stroke:#181818;stroke-width:1;"/><polygon fill="#181818" points="153.66,1014.8766,157.66,1005.8766,153.66,1009.8766,149.66,1005.8766,153.66,1014.8766" style="stroke:#181818;stroke-width:1;stroke-linejoin:miter;stroke-miterlimit:10;"/></g><!--link Draining to Draining--><g class="link" data-entity-1="ent0022" data-entity-2="ent0022" data-link-type="dependency" data-source-line="32" id="lnk24"><path d="M193.14,1032.1366 C203.19,1032.6666 210.74,1035.3566 210.74,1040.1966 C210.74,1045.0366 208.1831,1047.4632 198.1331,1047.9932" fill="none" id="Draining-to-Draining" style="stroke:#181818;stroke-width:1;"/><polygon fill="#181818" points="193.14,1048.2566,202.3382,1051.777,198.1331,1047.9932,201.9169,1043.7881,193.14,1048.2566" style="stroke:#181818;stroke-width:1;stroke-linejoin:miter;stroke-miterlimit:10;"/><text fill="#000000" font-family="sans-serif" font-size="13" lengthAdjust="spacing" textLength="150.4458" x="216.74" y="1045.2649">in-flight reads finishing</text></g></g><g class="start_entity" data-qualified-name=".start." data-source-line="4" id="ent0004"><ellipse cx="249.88" cy="53.4883" fill="#222222" rx="10" ry="10" style="stroke:#222222;stroke-width:1;"/></g><g class="entity" data-qualified-name="Complete" data-source-line="12" id="ent0011"><rect fill="#F1F1F1" height="50" rx="12.5" ry="12.5" style="stroke:#181818;stroke-width:0.5;" width="85.0508" x="207.36" y="415.5983"/><line style="stroke:#181818;stroke-width:0.5;" x1="207.36" x2="292.4108" y1="442.0866" y2="442.0866"/><text fill="#000000" font-family="sans-serif" font-size="14" lengthAdjust="spacing" textLength="65.0508" x="217.36" y="434.1334">Complete</text></g><g class="entity" data-qualified-name="Deleted" data-source-line="35" id="ent0025"><rect fill="#F1F1F1" height="50" rx="12.5" ry="12.5" style="stroke:#181818;stroke-width:0.5;" width="71.9805" x="213.89" y="1170.1983"/><line style="stroke:#181818;stroke-width:0.5;" x1="213.89" x2="285.8705" y1="1196.6866" y2="1196.6866"/><text fill="#000000" font-family="sans-serif" font-size="14" lengthAdjust="spacing" textLength="51.9805" x="223.89" y="1188.7334">Deleted</text></g><g class="end_entity" data-qualified-name=".end." data-source-line="36" id="ent0027"><ellipse cx="249.88" cy="1292.1983" fill="none" rx="11" ry="11" style="stroke:#222222;stroke-width:1;"/><ellipse cx="249.88" cy="1292.1983" fill="#222222" rx="6" ry="6" style="stroke:#222222;stroke-width:1;"/></g><g class="entity" data-qualified-name="GMN29" data-source-line="14" id="ent0030"><path d="M327.46,404.9783 L327.46,436.5983 L292.73,440.5983 L327.46,444.5983 L327.46,476.2205 A0,0 0 0 0 327.46,476.2205 L598.3038,476.2205 A0,0 0 0 0 598.3038,476.2205 L598.3038,414.9783 L588.3038,404.9783 L327.46,404.9783 A0,0 0 0 0 327.46,404.9783" fill="#FEFFDD" style="stroke:#181818;stroke-width:0.5;"/><path d="M588.3038,404.9783 L588.3038,414.9783 L598.3038,414.9783 L588.3038,404.9783" fill="#FEFFDD" style="stroke:#181818;stroke-width:0.5;"/><text fill="#000000" font-family="sans-serif" font-size="13" lengthAdjust="spacing" textLength="128.2734" x="333.46" y="422.5466">meta.json present =</text><text fill="#000000" font-family="sans-serif" font-size="13" lengthAdjust="spacing" textLength="121.729" x="333.46" y="437.8572">"table is complete".</text><text fill="#000000" font-family="sans-serif" font-size="13" lengthAdjust="spacing" textLength="181.4795" x="333.46" y="453.1677">A crash before this leaves an</text><text fill="#000000" font-family="sans-serif" font-size="13" lengthAdjust="spacing" textLength="249.8438" x="333.46" y="468.4783">incomplete folder, ignored on recovery.</text></g><!--link *start* to Writing--><g class="link" data-entity-1="ent0004" data-entity-2="ent0001" data-link-type="dependency" data-source-line="4" id="lnk5"><path d="M249.88,63.7683 C249.88,78.7783 249.88,104.8183 249.88,135.1583" fill="none" id="*start*-to-Writing" style="stroke:#181818;stroke-width:1;"/><polygon fill="#181818" points="249.88,140.1583,253.88,131.1583,249.88,135.1583,245.88,131.1583,249.88,140.1583" style="stroke:#181818;stroke-width:1;stroke-linejoin:miter;stroke-miterlimit:10;"/><text fill="#000000" font-family="sans-serif" font-size="13" lengthAdjust="spacing" textLength="218.3975" x="250.88" y="107.0566">SSTableWriter created (state OPEN)</text></g><!--link Writing to Complete--><g class="link" data-entity-1="ent0001" data-entity-2="ent0011" data-link-type="dependency" data-source-line="12" id="lnk12"><path d="M249.88,298.1883 C249.88,339.3283 249.88,381.9683 249.88,410.1283" fill="none" id="Writing-to-Complete" style="stroke:#181818;stroke-width:1;"/><polygon fill="#181818" points="249.88,415.1283,253.88,406.1283,249.88,410.1283,245.88,406.1283,249.88,415.1283" style="stroke:#181818;stroke-width:1;stroke-linejoin:miter;stroke-miterlimit:10;"/><text fill="#000000" font-family="sans-serif" font-size="13" lengthAdjust="spacing" textLength="136.7158" x="266.254" y="341.5466">finish() / finish_sync()</text><text fill="#000000" font-family="sans-serif" font-size="13" lengthAdjust="spacing" textLength="167.4639" x="250.88" y="356.8572">writes index.bin, filter.bin,</text><text fill="#000000" font-family="sans-serif" font-size="13" lengthAdjust="spacing" textLength="129.7588" x="269.7325" y="372.1677">then meta.json LAST</text></g><!--link Complete to Live--><g class="link" data-entity-1="ent0011" data-entity-2="ent0002" data-link-type="dependency" data-source-line="20" id="lnk13"><path d="M249.88,465.6683 C249.88,489.7483 249.88,523.7283 249.88,562.9183" fill="none" id="Complete-to-Live" style="stroke:#181818;stroke-width:1;"/><polygon fill="#181818" points="249.88,567.9183,253.88,558.9183,249.88,562.9183,245.88,558.9183,249.88,567.9183" style="stroke:#181818;stroke-width:1;stroke-linejoin:miter;stroke-miterlimit:10;"/><text fill="#000000" font-family="sans-serif" font-size="13" lengthAdjust="spacing" textLength="186.8306" x="250.88" y="519.7866">registered in SSTableManager</text><text fill="#000000" font-family="sans-serif" font-size="13" lengthAdjust="spacing" textLength="172.5229" x="258.0338" y="535.0972">(reader open, refcount = 0)</text></g><!--link Live to MarkedForDeletion--><g class="link" data-entity-1="ent0002" data-entity-2="ent0003" data-link-type="dependency" data-source-line="28" id="lnk20"><path d="M249.88,828.8683 C249.88,860.1183 249.88,887.5583 249.88,915.5983" fill="none" id="Live-to-MarkedForDeletion" style="stroke:#181818;stroke-width:1;"/><polygon fill="#181818" points="249.88,920.5983,253.88,911.5983,249.88,915.5983,245.88,911.5983,249.88,920.5983" style="stroke:#181818;stroke-width:1;stroke-linejoin:miter;stroke-miterlimit:10;"/><text fill="#000000" font-family="sans-serif" font-size="13" lengthAdjust="spacing" textLength="169.5903" x="250.88" y="872.2766">superseded by compaction</text><text fill="#000000" font-family="sans-serif" font-size="13" lengthAdjust="spacing" textLength="122.8716" x="274.2394" y="887.5872">(mark_for_deletion)</text></g><!--link MarkedForDeletion to Deleted--><g class="link" data-entity-1="ent0003" data-entity-2="ent0025" data-link-type="dependency" data-source-line="35" id="lnk26"><path d="M249.88,1078.4183 C249.88,1111.2283 249.88,1142.0383 249.88,1165.0183" fill="none" id="MarkedForDeletion-to-Deleted" style="stroke:#181818;stroke-width:1;"/><polygon fill="#181818" points="249.88,1170.0183,253.88,1161.0183,249.88,1165.0183,245.88,1161.0183,249.88,1170.0183" style="stroke:#181818;stroke-width:1;stroke-linejoin:miter;stroke-miterlimit:10;"/><text fill="#000000" font-family="sans-serif" font-size="13" lengthAdjust="spacing" textLength="90.0986" x="317.8954" y="1121.7666">refcount == 0</text><text fill="#000000" font-family="sans-serif" font-size="13" lengthAdjust="spacing" textLength="224.1294" x="250.88" y="1137.0772">-&gt; files removed, cache invalidated</text></g><!--link Deleted to *end*--><g class="link" data-entity-1="ent0025" data-entity-2="ent0027" data-link-type="dependency" data-source-line="36" id="lnk28"><path d="M249.88,1220.6583 C249.88,1240.2383 249.88,1261.6883 249.88,1275.9983" fill="none" id="Deleted-to-*end*" style="stroke:#181818;stroke-width:1;"/><polygon fill="#181818" points="249.88,1280.9983,253.88,1271.9983,249.88,1275.9983,245.88,1271.9983,249.88,1280.9983" style="stroke:#181818;stroke-width:1;stroke-linejoin:miter;stroke-miterlimit:10;"/></g><?plantuml-src VLF1ZX914BttLrJsDBW3UYRHP5SqCIvgP1CFOaWpNSEqDDtOtGCIO-97-8L-YQy61jbiuWLwgb-zgbVrEjlicDxQlPtSqfzVlscMTMQQwggndiSqczth9H2rnO-pDLU7oh5AQ-ktEkeDfKQRiBT-HRLsYPNw_EGB3OSlw5EqMS9d3Wbmf2eoAXWgKbVf_OTNxmPA7J_wd1-AgEUvRUkQ8wA8dSyFRr1Zs-PYpOUI4dyhAQUITjgrF9ZxGgUAlH4O06dmNvgb2zMQwjOvmatjsjGSO-NSQsCe1qhGdPYiD_oThkKsRDHFfVhUXV9bs6mTGz0OW_CsDSM0dfwEYtJmLO76zZAFT2GQBQqlPSYOK7UU-zomfmrdFVgQWgUxczczyW6SqQwQJA4-Lu6YVxXjvCG-qtD4htAtEvkeEa6lHWZVO0TQX74T8bDk072iTsX6UznRtyEf3ivmBCckFA26K21o5NOS3oE5gP9qfDHPhuY_ipiH7dbb4-GWo_hU0rFjzOeZjW8NW9d2bY4ySbs5LhgcPsSpT3oNJdXZd6YLl-xx8oYEQnEMnP4HaovwkkjhsNOFwocwthhYaI4xYHVxZE5m8BliIWj-gkEQpUiG9u1c2_bZIksMuG23lEMXcwokv0gYDe0lCDI5ES7FOXuJNIgRH0rlT1RlZm_Yg6hzi7RTvgNvT3AJvA3Vn-nTjdoWo_75V37WkHThupqdn3VOfIcfmdiNJ-FHM2FFK_N9GeGsrLy0?></g></svg>